<?xml version="1.0" encoding="UTF-8" standalone="no"?>
<!DOCTYPE svg PUBLIC "-//W3C//DTD SVG 1.1//EN" "http://www.w3.org/Graphics/SVG/1.1/DTD/svg11.dtd">
<svg width="100%" height="100%" viewBox="0 0 601 601" version="1.1" xmlns="http://www.w3.org/2000/svg" xmlns:xlink="http://www.w3.org/1999/xlink" xml:space="preserve" xmlns:serif="http://www.serif.com/" style="fill-rule:evenodd;clip-rule:evenodd;stroke-linecap:round;stroke-linejoin:round;stroke-miterlimit:1.5;">
    <rect id="attract-01---cleanup" serif:id="attract 01 - cleanup" x="0.035" y="0.451" width="600" height="600" style="fill:none;"/>
    <path d="M500.035,132.451l-0,336c-0,17.661 -14.339,32 -32,32l-336,-0c-17.662,-0 -32,-14.339 -32,-32l-0,-336c-0,-17.662 14.338,-32 32,-32l336,-0c17.661,-0 32,14.338 32,32Z" style="fill:rgb(45,49,51);"/>
    <clipPath id="_clip1">
        <path d="M500.035,132.451l-0,336c-0,17.661 -14.339,32 -32,32l-336,-0c-17.662,-0 -32,-14.339 -32,-32l-0,-336c-0,-17.662 14.338,-32 32,-32l336,-0c17.661,-0 32,14.338 32,32Z"/>
    </clipPath>
    <g clip-path="url(#_clip1)">
        <path d="M72.446,214.159c13.44,62.077 26.626,122.761 38.614,122.761c27.281,0 54.098,-217.508 80.579,-217.508c26.482,0 56.041,137.993 80.58,137.993c27.281,0 42.432,-104.896 68.914,-104.896c26.482,0 44.376,104.896 68.915,104.896c27.281,0 30.767,-211.888 57.249,-211.888c19.568,0 28.078,167.486 41.088,254.934" style="fill:none;stroke:rgb(22,93,131);stroke-width:10px;"/>
        <path d="M69.961,221.714c26.482,0 56.041,254.271 80.58,254.271c27.281,0 54.097,-217.508 80.579,-217.508c26.482,0 56.041,137.993 80.58,137.993c27.281,0 42.432,-104.896 68.914,-104.896c26.482,0 44.376,104.896 68.914,104.896c27.282,0 30.768,-211.888 57.25,-211.888" style="fill:none;stroke:rgb(55,132,170);stroke-width:10px;"/>
        <path d="M55.969,288.054c26.482,0 56.041,137.994 80.58,137.994c27.281,-0 42.432,-104.896 68.914,-104.896c26.482,-0 44.375,104.896 68.914,104.896c27.282,-0 30.768,-211.889 57.249,-211.889c26.482,0 32.711,306.732 57.25,306.732c27.281,-0 54.097,-199.739 80.579,-199.739c13.999,-0 28.858,29.313 43.381,56.948" style="fill:none;stroke:rgb(239,246,249);stroke-width:10px;"/>
    </g>
</svg>
