<?xml version="1.0" encoding="UTF-8" standalone="no"?>
<!DOCTYPE svg PUBLIC "-//W3C//DTD SVG 1.1//EN" "http://www.w3.org/Graphics/SVG/1.1/DTD/svg11.dtd">
<svg width="100%" height="100%" viewBox="0 0 601 601" version="1.1" xmlns="http://www.w3.org/2000/svg" xmlns:xlink="http://www.w3.org/1999/xlink" xml:space="preserve" xmlns:serif="http://www.serif.com/" style="fill-rule:evenodd;clip-rule:evenodd;stroke-linecap:round;stroke-linejoin:round;stroke-miterlimit:1.5;">
    <rect id="comb-01---cleanup" serif:id="comb 01 - cleanup" x="0.035" y="0.887" width="600" height="600" style="fill:none;"/>
    <path d="M500.035,132.887l-0,336c-0,17.661 -14.339,32 -32,32l-336,0c-17.662,0 -32,-14.339 -32,-32l-0,-336c-0,-17.661 14.338,-32 32,-32l336,0c17.661,0 32,14.339 32,32Z" style="fill:rgb(45,49,51);"/>
    <path d="M150.056,156.505c0,-0 4.33,111.638 49.177,111.638c44.846,-0 49.176,-111.638 49.176,-111.638c0,-0 2.955,111.638 31.181,111.638c28.225,-0 31.18,-111.638 31.18,-111.638c-0,-0 2.382,111.638 25.134,111.638c22.752,-0 25.134,-111.638 25.134,-111.638c0,-0 1.92,111.638 20.26,111.638c18.341,-0 20.261,-111.638 20.261,-111.638c-0,-0 1.548,111.638 16.332,111.638c14.783,-0 16.331,-111.638 16.331,-111.638c0,-0 1.629,111.638 7.917,111.638c6.289,-0 7.917,-111.638 7.917,-111.638l0,66.528" style="fill:none;stroke:rgb(22,93,131);stroke-width:10px;"/>
    <path d="M150.056,156.505l0,62.722c0,-0 4.33,111.638 49.177,111.638c44.846,-0 48.441,-122.007 48.441,-122.007c-0,-0 3.69,122.007 31.916,122.007c28.225,-0 30.444,-122.007 30.444,-122.007c0,-0 3.118,122.007 25.87,122.007c22.752,-0 24.399,-122.007 24.399,-122.007c-0,-0 2.655,122.007 20.995,122.007c18.341,-0 19.526,-122.007 19.526,-122.007c-0,-0 2.283,122.007 17.067,122.007c14.783,-0 15.596,-122.007 15.596,-122.007c-0,-0 2.364,122.007 8.652,122.007c6.289,-0 7.917,-111.638 7.917,-111.638l0,-28.722" style="fill:none;stroke:rgb(55,132,170);stroke-width:10px;"/>
    <path d="M150.056,219.227l0,62.722c0,0 4.33,111.638 49.177,111.638c44.846,-0 48.071,-127.226 48.071,-127.226c-0,-0 4.06,127.226 32.286,127.226c28.225,-0 30.074,-127.226 30.074,-127.226c0,-0 3.488,127.226 26.24,127.226c22.752,-0 24.029,-127.226 24.029,-127.226c-0,-0 3.025,127.226 21.365,127.226c18.341,-0 19.155,-127.226 19.155,-127.226c0,-0 2.654,127.226 17.438,127.226c14.783,-0 15.226,-127.226 15.226,-127.226c-0,-0 2.734,127.226 9.022,127.226c6.289,-0 7.917,-111.638 7.917,-111.638l0,-21.916" style="fill:none;stroke:rgb(121,194,231);stroke-width:10px;"/>
    <path d="M150.056,281.949c0,0 0.206,41.984 0,62.722c-0.305,30.777 4.33,111.638 49.177,111.638c44.846,-0 48.955,-128.957 48.955,-128.957c-0,0 3.176,128.957 31.402,128.957c28.225,-0 30.958,-128.957 30.958,-128.957c0,0 2.604,128.957 25.356,128.957c22.752,-0 24.912,-128.957 24.912,-128.957c0,0 2.142,128.957 20.482,128.957c18.341,-0 20.039,-128.957 20.039,-128.957c0,0 1.77,128.957 16.554,128.957c14.783,-0 16.11,-128.957 16.11,-128.957c-0,0 1.85,128.957 8.138,128.957c6.289,-0 7.917,-111.638 7.917,-111.638l0,-21.638" style="fill:none;stroke:rgb(239,246,249);stroke-width:10px;"/>
</svg>
