<?xml version="1.0" encoding="UTF-8" standalone="no"?>
<!DOCTYPE svg PUBLIC "-//W3C//DTD SVG 1.1//EN" "http://www.w3.org/Graphics/SVG/1.1/DTD/svg11.dtd">
<svg width="100%" height="100%" viewBox="0 0 601 601" version="1.1" xmlns="http://www.w3.org/2000/svg" xmlns:xlink="http://www.w3.org/1999/xlink" xml:space="preserve" xmlns:serif="http://www.serif.com/" style="fill-rule:evenodd;clip-rule:evenodd;stroke-linecap:round;stroke-linejoin:round;stroke-miterlimit:1.5;">
    <rect id="peak-01---cleanup" serif:id="peak 01 - cleanup" x="0.573" y="0.634" width="600" height="600" style="fill:none;"/>
    <path d="M500.573,132.634l-0,336c-0,17.661 -14.339,32 -32,32l-336,-0c-17.661,-0 -32,-14.339 -32,-32l-0,-336c-0,-17.661 14.339,-32 32,-32l336,-0c17.661,-0 32,14.339 32,32Z" style="fill:rgb(45,49,51);"/>
    <clipPath id="_clip1">
        <path d="M500.573,132.634l-0,336c-0,17.661 -14.339,32 -32,32l-336,-0c-17.661,-0 -32,-14.339 -32,-32l-0,-336c-0,-17.661 14.339,-32 32,-32l336,-0c17.661,-0 32,14.339 32,32Z"/>
    </clipPath>
    <g clip-path="url(#_clip1)">
        <path d="M100.573,500.634l103.59,-200l192.82,-0l103.59,200" style="fill:none;stroke:rgb(55,132,170);stroke-width:10px;"/>
        <path d="M201.105,400.634l204.23,-0" style="fill:none;stroke:rgb(22,93,131);stroke-width:10px;"/>
        <path d="M100.573,500.634l84.281,-333.965l315.719,333.965" style="fill:none;stroke:rgb(121,194,231);stroke-width:10px;"/>
        <path d="M100.573,500.634l312.877,-309.948l87.123,309.948" style="fill:none;stroke:rgb(239,246,249);stroke-width:10px;"/>
    </g>
</svg>
