<?xml version="1.0" encoding="UTF-8" standalone="no"?>
<!DOCTYPE svg PUBLIC "-//W3C//DTD SVG 1.1//EN" "http://www.w3.org/Graphics/SVG/1.1/DTD/svg11.dtd">
<svg width="100%" height="100%" viewBox="0 0 601 601" version="1.1" xmlns="http://www.w3.org/2000/svg" xmlns:xlink="http://www.w3.org/1999/xlink" xml:space="preserve" xmlns:serif="http://www.serif.com/" style="fill-rule:evenodd;clip-rule:evenodd;stroke-linecap:round;stroke-linejoin:round;stroke-miterlimit:1.5;">
    <rect id="band-01---cleanup-2" serif:id="band 01 - cleanup 2" x="0.035" y="0.79" width="600" height="600" style="fill:none;"/>
    <path d="M500.035,132.79l-0,336c-0,17.661 -14.339,32 -32,32l-336,-0c-17.662,-0 -32,-14.339 -32,-32l-0,-336c-0,-17.662 14.338,-32 32,-32l336,-0c17.661,-0 32,14.338 32,32Z" style="fill:rgb(45,49,51);"/>
    <clipPath id="_clip1">
        <path d="M500.035,132.79l-0,336c-0,17.661 -14.339,32 -32,32l-336,-0c-17.662,-0 -32,-14.339 -32,-32l-0,-336c-0,-17.662 14.338,-32 32,-32l336,-0c17.661,-0 32,14.338 32,32Z"/>
    </clipPath>
    <g clip-path="url(#_clip1)">
        <path d="M538.695,174.091c0,0 -51.306,0.067 -99.695,0.13c-50.888,0.066 -96.745,30.725 -116.255,77.725c-40.142,96.708 -103.521,249.396 -103.521,249.396" style="fill:none;stroke:rgb(22,93,131);stroke-width:10px;"/>
        <path d="M538.695,203.35c0,-0 -50.668,-0.004 -95.354,-0.007c-40.424,-0.003 -76.875,24.331 -92.373,61.667c-36.227,87.277 -98.098,236.332 -98.098,236.332" style="fill:none;stroke:rgb(55,132,170);stroke-width:10px;"/>
        <path d="M538.695,232.637c0,0 -46.407,-0.009 -85.904,-0.018c-33.131,-0.006 -63.007,19.935 -75.708,50.535c-32.313,77.845 -90.568,218.188 -90.568,218.188" style="fill:none;stroke:rgb(55,132,170);stroke-width:10px;"/>
        <path d="M538.695,261.868c0,-0 -42.198,-0.072 -76.347,-0.131c-25.843,-0.044 -49.162,15.497 -59.069,39.364c-28.24,68.034 -83.118,200.241 -83.118,200.241" style="fill:none;stroke:rgb(121,194,231);stroke-width:10px;"/>
        <path d="M538.695,293.209c0,0 -43.937,0.037 -73.384,0.062c-15.743,0.013 -29.933,9.495 -35.969,24.036c-22.719,54.734 -76.391,184.035 -76.391,184.035" style="fill:none;stroke:rgb(239,246,249);stroke-width:10px;"/>
        <path d="M69.695,274.508c0,-0 51.307,0.066 99.695,0.129c50.889,0.066 96.746,30.725 116.255,77.726c29.54,71.164 68.72,165.554 68.72,165.554" style="fill:none;stroke:rgb(239,246,249);stroke-width:10px;"/>
        <path d="M69.695,303.767c0,-0 50.668,-0.004 95.354,-0.007c40.425,-0.003 76.875,24.331 92.373,61.666c26.261,63.267 63.297,152.491 63.297,152.491" style="fill:none;stroke:rgb(121,194,231);stroke-width:10px;"/>
        <path d="M69.695,333.054c0,-0 46.407,-0.01 85.905,-0.018c33.13,-0.007 63.006,19.935 75.707,50.534c22.723,54.743 55.766,134.347 55.766,134.347" style="fill:none;stroke:rgb(55,132,170);stroke-width:10px;"/>
        <path d="M69.695,362.284c0,0 42.199,-0.072 76.348,-0.13c25.842,-0.044 49.162,15.496 59.069,39.364c19.163,46.167 48.315,116.399 48.315,116.399" style="fill:none;stroke:rgb(55,132,170);stroke-width:10px;"/>
        <path d="M69.695,393.626c0,-0 43.937,0.037 73.384,0.061c15.743,0.013 29.933,9.496 35.969,24.036c14.987,36.106 41.589,100.194 41.589,100.194" style="fill:none;stroke:rgb(22,93,131);stroke-width:10px;"/>
    </g>
</svg>
