<?xml version="1.0" encoding="UTF-8" standalone="no"?>
<!DOCTYPE svg PUBLIC "-//W3C//DTD SVG 1.1//EN" "http://www.w3.org/Graphics/SVG/1.1/DTD/svg11.dtd">
<svg width="100%" height="100%" viewBox="0 0 601 601" version="1.1" xmlns="http://www.w3.org/2000/svg" xmlns:xlink="http://www.w3.org/1999/xlink" xml:space="preserve" xmlns:serif="http://www.serif.com/" style="fill-rule:evenodd;clip-rule:evenodd;stroke-linecap:round;stroke-linejoin:round;stroke-miterlimit:1.5;">
    <rect id="play-01---cleanup" serif:id="play 01 - cleanup" x="0.429" y="0.685" width="600" height="600" style="fill:none;"/>
    <path d="M500.429,132.685l0,336c0,17.662 -14.339,32 -32,32l-336,0c-17.661,0 -32,-14.338 -32,-32l0,-336c0,-17.661 14.339,-32 32,-32l336,0c17.661,0 32,14.339 32,32Z" style="fill:rgb(45,49,51);"/>
    <clipPath id="_clip1">
        <path d="M500.429,132.685l0,336c0,17.662 -14.339,32 -32,32l-336,0c-17.661,0 -32,-14.338 -32,-32l0,-336c0,-17.661 14.339,-32 32,-32l336,0c17.661,0 32,14.339 32,32Z"/>
    </clipPath>
    <g clip-path="url(#_clip1)">
        <path d="M115.674,169.245c-0,0 6.33,-19.891 12.598,-39.589c3.272,-10.281 13.041,-17.082 23.819,-16.583c10.778,0.5 19.876,8.176 22.182,18.716c2.538,11.596 5.149,23.524 7.708,35.217c1.786,8.163 7.642,14.597 15.181,17.324" style="fill:none;stroke:rgb(22,93,131);stroke-width:10px;"/>
        <path d="M236.98,137.368c5.035,-17.807 10.126,-35.809 14.894,-52.668" style="fill:none;stroke:rgb(22,93,131);stroke-width:10px;"/>
        <path d="M297.914,85.312c6.218,24.453 12.868,50.604 18.654,73.352c2.36,9.283 10.325,16.063 19.866,16.91c9.541,0.848 18.576,-4.422 22.536,-13.144c0,-0 0.001,-0.001 0.001,-0.002c3.339,-7.354 10.46,-12.269 18.521,-12.782c8.06,-0.514 15.747,3.458 19.992,10.33c31.634,51.21 86.921,140.709 86.921,140.709c-0,0 -55.287,89.499 -86.921,140.71c-4.245,6.871 -11.932,10.843 -19.992,10.33c-8.061,-0.513 -15.182,-5.428 -18.521,-12.782c-0,-0.001 -0.001,-0.002 -0.001,-0.003c-3.96,-8.721 -12.995,-13.991 -22.536,-13.144c-9.541,0.848 -17.506,7.627 -19.866,16.91c-5.786,22.749 -12.436,48.9 -18.654,73.353c-2.658,10.452 -12.002,17.817 -22.786,17.96c-10.783,0.144 -20.319,-6.971 -23.254,-17.348c-4.768,-16.859 -9.859,-34.861 -14.894,-52.668" style="fill:none;stroke:rgb(22,93,131);stroke-width:10px;"/>
        <path d="M115.91,432.867c2.861,8.992 8.099,25.449 12.362,38.847c3.272,10.282 13.041,17.083 23.819,16.584c10.778,-0.5 19.876,-8.176 22.182,-18.716c2.538,-11.596 5.149,-23.524 7.708,-35.218c1.786,-8.162 7.642,-14.597 15.181,-17.323" style="fill:none;stroke:rgb(22,93,131);stroke-width:10px;"/>
        <path d="M89.061,182.289c4.14,-8.901 13.314,-14.355 23.112,-13.738c9.798,0.617 18.216,7.178 21.206,16.529c2.742,8.573 5.577,17.434 8.343,26.084c3.048,9.531 11.725,16.143 21.723,16.555" style="fill:none;stroke:rgb(55,132,170);stroke-width:10px;"/>
        <path d="M197.09,187.276c4.939,-11.95 9.905,-23.965 14.538,-35.175c3.745,-9.062 12.656,-14.906 22.46,-14.729c9.803,0.177 18.498,6.339 21.914,15.529c6.141,16.526 12.751,34.311 18.546,49.904c3.124,8.406 10.701,14.347 19.609,15.376c8.908,1.029 17.64,-3.029 22.598,-10.501c0.129,-0.194 0.258,-0.388 0.386,-0.582c4.071,-6.136 10.75,-10.046 18.094,-10.593c7.344,-0.546 14.528,2.333 19.463,7.799c31.233,34.597 87.009,96.381 87.009,96.381c0,0 -55.776,61.785 -87.009,96.382c-4.935,5.466 -12.119,8.345 -19.463,7.798c-7.344,-0.546 -14.023,-4.456 -18.094,-10.592c-0.128,-0.194 -0.257,-0.388 -0.386,-0.582c-4.958,-7.473 -13.69,-11.53 -22.598,-10.501c-8.908,1.029 -16.485,6.97 -19.609,15.376c-5.795,15.593 -12.405,33.377 -18.546,49.903c-3.416,9.191 -12.111,15.353 -21.914,15.53c-9.804,0.177 -18.715,-5.668 -22.46,-14.729c-4.633,-11.211 -9.599,-23.226 -14.538,-35.175" style="fill:none;stroke:rgb(55,132,170);stroke-width:10px;"/>
        <path d="M89.061,419.081c4.14,8.902 13.314,14.355 23.112,13.738c9.798,-0.616 18.216,-7.177 21.206,-16.528c2.742,-8.574 5.577,-17.435 8.343,-26.084c3.048,-9.531 11.725,-16.144 21.723,-16.556" style="fill:none;stroke:rgb(55,132,170);stroke-width:10px;"/>
        <path d="M83.476,208.589c8.493,0.684 15.975,5.85 19.625,13.549c3.456,7.291 7.093,14.961 10.585,22.328c3.748,7.907 11.528,13.125 20.266,13.593" style="fill:none;stroke:rgb(121,194,231);stroke-width:10px;"/>
        <path d="M166.972,228.065c6.138,-10.021 12.37,-20.194 18.011,-29.403c4.435,-7.241 12.388,-11.575 20.876,-11.38c8.489,0.196 16.233,4.893 20.33,12.33c6.97,12.653 14.696,26.679 21.254,38.584c3.633,6.596 10.169,11.087 17.629,12.114c7.46,1.026 14.966,-1.532 20.246,-6.901c2.231,-2.269 4.454,-4.529 6.574,-6.685c8.36,-8.501 21.716,-9.518 31.266,-2.38c29.72,22.211 88.771,66.341 88.771,66.341c-0,0 -59.051,44.131 -88.771,66.342c-9.55,7.138 -22.906,6.121 -31.266,-2.38c-2.12,-2.156 -4.343,-4.416 -6.574,-6.685c-5.28,-5.369 -12.786,-7.928 -20.246,-6.901c-7.46,1.027 -13.996,5.518 -17.629,12.114c-6.558,11.905 -14.284,25.931 -21.254,38.584c-4.097,7.437 -11.841,12.134 -20.33,12.329c-8.488,0.196 -16.441,-4.139 -20.876,-11.379c-5.576,-9.104 -11.729,-19.148 -17.8,-29.058" style="fill:none;stroke:rgb(121,194,231);stroke-width:10px;"/>
        <path d="M83.476,392.782c8.493,-0.684 15.975,-5.85 19.625,-13.549c3.456,-7.291 7.093,-14.962 10.585,-22.329c3.748,-7.907 11.528,-13.124 20.266,-13.592" style="fill:none;stroke:rgb(121,194,231);stroke-width:10px;"/>
        <path d="M88.004,269.78c4.168,5.86 10.759,9.524 17.936,9.974c7.176,0.449 14.172,-2.366 19.039,-7.66c11.451,-12.459 25.741,-28.006 36.947,-40.196c4.662,-5.072 11.29,-7.879 18.176,-7.698c6.887,0.181 13.358,3.332 17.747,8.642c8.461,10.237 18.485,22.364 26.409,31.95c7.828,9.472 21.573,11.44 31.746,4.547c5.067,-3.434 10.445,-7.079 15.026,-10.183c7.124,-4.828 16.297,-5.441 24,-1.604c26.619,13.258 86.604,43.133 86.604,43.133c-0,0 -59.985,29.876 -86.604,43.134c-7.703,3.837 -16.876,3.224 -24,-1.604c-4.581,-3.105 -9.959,-6.749 -15.026,-10.183c-10.173,-6.894 -23.918,-4.925 -31.746,4.546c-7.924,9.586 -17.948,21.714 -26.409,31.951c-4.389,5.309 -10.86,8.461 -17.747,8.642c-6.886,0.181 -13.514,-2.626 -18.176,-7.698c-11.206,-12.191 -25.496,-27.738 -36.947,-40.196c-4.867,-5.295 -11.863,-8.109 -19.039,-7.66c-7.177,0.449 -13.768,4.114 -17.936,9.974" style="fill:none;stroke:rgb(239,246,249);stroke-width:10px;"/>
    </g>
</svg>
