<?xml version="1.0" encoding="UTF-8" standalone="no"?>
<!DOCTYPE svg PUBLIC "-//W3C//DTD SVG 1.1//EN" "http://www.w3.org/Graphics/SVG/1.1/DTD/svg11.dtd">
<svg width="100%" height="100%" viewBox="0 0 601 601" version="1.1" xmlns="http://www.w3.org/2000/svg" xmlns:xlink="http://www.w3.org/1999/xlink" xml:space="preserve" xmlns:serif="http://www.serif.com/" style="fill-rule:evenodd;clip-rule:evenodd;stroke-linecap:round;stroke-linejoin:round;stroke-miterlimit:1.5;">
    <rect id="pitch-02---cleanup" serif:id="pitch 02 - cleanup" x="0.035" y="0.587" width="600" height="600" style="fill:none;"/>
    <path d="M500.035,132.587l-0,336c-0,17.661 -14.339,32 -32,32l-336,-0c-17.662,-0 -32,-14.339 -32,-32l-0,-336c-0,-17.661 14.338,-32 32,-32l336,-0c17.661,-0 32,14.339 32,32Z" style="fill:rgb(45,49,51);"/>
    <g>
        <path d="M229.203,300.587c21.438,-0 13.977,-160 35.416,-160c21.438,-0 13.977,160 35.416,160" style="fill:none;stroke:rgb(22,93,131);stroke-width:10px;"/>
        <path d="M184.951,300.587c13.394,-0 8.733,-160 22.126,-160c13.393,-0 8.732,160 22.126,160" style="fill:none;stroke:rgb(55,132,170);stroke-width:10px;"/>
        <path d="M157.306,300.587c8.367,-0 5.455,-160 13.823,-160c8.367,-0 5.455,160 13.822,160" style="fill:none;stroke:rgb(121,194,231);stroke-width:10px;"/>
        <path d="M140.035,300.587c5.227,-0 3.408,-160 8.635,-160c5.228,-0 3.408,160 8.636,160" style="fill:none;stroke:rgb(239,246,249);stroke-width:10px;"/>
    </g>
    <g>
        <path d="M229.203,300.587c21.438,-0 13.977,160 35.416,160c21.438,-0 13.977,-160 35.416,-160" style="fill:none;stroke:rgb(22,93,131);stroke-width:10px;"/>
        <path d="M184.951,300.587c13.394,-0 8.733,160 22.126,160c13.393,-0 8.732,-160 22.126,-160" style="fill:none;stroke:rgb(55,132,170);stroke-width:10px;"/>
        <path d="M157.306,300.587c8.367,-0 5.455,160 13.823,160c8.367,-0 5.455,-160 13.822,-160" style="fill:none;stroke:rgb(121,194,231);stroke-width:10px;"/>
        <path d="M140.035,300.587c5.227,-0 3.408,160 8.635,160c5.228,-0 3.408,-160 8.636,-160" style="fill:none;stroke:rgb(239,246,249);stroke-width:10px;"/>
    </g>
    <g>
        <path d="M370.867,300.587c-21.439,-0 -13.978,-160 -35.416,-160c-21.439,-0 -13.978,160 -35.416,160" style="fill:none;stroke:rgb(22,93,131);stroke-width:10px;"/>
        <path d="M415.118,300.587c-13.393,-0 -8.732,-160 -22.126,-160c-13.393,-0 -8.732,160 -22.125,160" style="fill:none;stroke:rgb(55,132,170);stroke-width:10px;"/>
        <path d="M442.763,300.587c-8.367,-0 -5.455,-160 -13.822,-160c-8.368,-0 -5.456,160 -13.823,160" style="fill:none;stroke:rgb(121,194,231);stroke-width:10px;"/>
        <path d="M460.035,300.587c-5.228,-0 -3.409,-160 -8.636,-160c-5.227,-0 -3.408,160 -8.636,160" style="fill:none;stroke:rgb(239,246,249);stroke-width:10px;"/>
    </g>
    <g>
        <path d="M370.867,300.587c-21.439,-0 -13.978,160 -35.416,160c-21.439,-0 -13.978,-160 -35.416,-160" style="fill:none;stroke:rgb(22,93,131);stroke-width:10px;"/>
        <path d="M415.118,300.587c-13.393,-0 -8.732,160 -22.126,160c-13.393,-0 -8.732,-160 -22.125,-160" style="fill:none;stroke:rgb(55,132,170);stroke-width:10px;"/>
        <path d="M442.763,300.587c-8.367,-0 -5.455,160 -13.822,160c-8.368,-0 -5.456,-160 -13.823,-160" style="fill:none;stroke:rgb(121,194,231);stroke-width:10px;"/>
        <path d="M460.035,300.587c-5.228,-0 -3.409,160 -8.636,160c-5.227,-0 -3.408,-160 -8.636,-160" style="fill:none;stroke:rgb(239,246,249);stroke-width:10px;"/>
    </g>
</svg>
