<?xml version="1.0" encoding="UTF-8" standalone="no"?>
<!DOCTYPE svg PUBLIC "-//W3C//DTD SVG 1.1//EN" "http://www.w3.org/Graphics/SVG/1.1/DTD/svg11.dtd">
<svg width="100%" height="100%" viewBox="0 0 600 601" version="1.1" xmlns="http://www.w3.org/2000/svg" xmlns:xlink="http://www.w3.org/1999/xlink" xml:space="preserve" xmlns:serif="http://www.serif.com/" style="fill-rule:evenodd;clip-rule:evenodd;stroke-linejoin:round;stroke-miterlimit:1.5;">
    <rect id="time-01---cleanup" serif:id="time 01 - cleanup" x="0" y="0.168" width="600" height="600" style="fill:none;"/>
    <path d="M500,132.168l0,336c0,17.661 -14.339,32 -32,32l-336,0c-17.661,0 -32,-14.339 -32,-32l0,-336c0,-17.661 14.339,-32 32,-32l336,0c17.661,0 32,14.339 32,32Z" style="fill:rgb(45,49,51);"/>
    <clipPath id="_clip1">
        <path d="M500,132.168l0,336c0,17.661 -14.339,32 -32,32l-336,0c-17.661,0 -32,-14.339 -32,-32l0,-336c0,-17.661 14.339,-32 32,-32l336,0c17.661,0 32,14.339 32,32Z"/>
    </clipPath>
    <g clip-path="url(#_clip1)">
        <path d="M348.407,103.529c0,0 -9.946,45.004 -17.422,78.828c-2.15,9.727 -8.076,18.201 -16.474,23.559c-8.398,5.358 -18.58,7.16 -28.307,5.01c-26.443,-5.844 -61.102,-13.505 -82.449,-18.223c-10.805,-2.388 -21.5,4.435 -23.888,15.24c-0,0.001 -0.001,0.001 -0.001,0.002c-2.388,10.805 4.435,21.5 15.24,23.888c42.232,9.334 141.432,31.259 182.535,40.344c4.863,1.075 9.1,4.038 11.779,8.237c2.679,4.199 3.58,9.29 2.505,14.153c-0,0.001 -0,0.001 -0,0.002c-1.075,4.863 -4.038,9.1 -8.237,11.779c-4.199,2.679 -9.29,3.58 -14.154,2.505c-40.884,-9.036 -139.114,-30.747 -179.998,-39.783c-4.863,-1.075 -9.955,-0.174 -14.154,2.505c-4.199,2.679 -7.161,6.916 -8.236,11.779c-0,0.001 -0.001,0.001 -0.001,0.002c-1.075,4.863 -0.174,9.955 2.505,14.154c2.679,4.199 6.916,7.161 11.78,8.236c54.814,12.116 217.015,47.965 271.829,60.08c4.864,1.075 9.101,4.038 11.78,8.237c2.679,4.199 3.58,9.29 2.505,14.154c-0,0 -0,0.001 -0.001,0.001c-2.238,10.128 -12.262,16.523 -22.39,14.285c-28.064,-6.203 -82.23,-18.175 -118.567,-26.206c-9.727,-2.15 -19.909,-0.348 -28.307,5.01c-8.398,5.358 -14.324,13.832 -16.474,23.559c-8.215,37.17 -19.723,89.237 -19.723,89.237" style="fill:none;stroke:rgb(22,93,131);stroke-width:10px;"/>
        <path d="M348.407,103.529c0,0 -9.946,45.004 -17.422,78.828c-2.15,9.727 -8.076,18.201 -16.474,23.559c-8.398,5.358 -18.58,7.16 -28.307,5.01c-17.437,-3.854 -37.582,-8.306 -52.057,-11.506c-5.188,-1.146 -10.62,-0.185 -15.1,2.673c-4.48,2.858 -7.641,7.379 -8.787,12.567c-0.001,0.001 -0.001,0.002 -0.001,0.002c-2.388,10.805 4.435,21.5 15.24,23.888c31.719,7.011 93.927,20.76 124.84,27.593c10.127,2.238 16.523,12.263 14.284,22.39c0,0.001 0,0.001 -0,0.002c-2.238,10.127 -12.263,16.522 -22.39,14.284c-30.466,-6.733 -91.165,-20.149 -121.63,-26.883c-10.128,-2.238 -20.152,4.157 -22.391,14.285c0,0 0,0.001 -0,0.001c-2.238,10.128 4.157,20.152 14.284,22.391c45.634,10.086 163.899,36.225 209.533,46.311c10.127,2.238 16.522,12.263 14.284,22.39c-0,0.001 -0,0.001 -0,0.002c-1.075,4.863 -4.038,9.1 -8.237,11.779c-4.199,2.679 -9.29,3.58 -14.154,2.505c-21.981,-4.858 -59.351,-13.118 -87.336,-19.303c-20.255,-4.477 -40.304,8.314 -44.781,28.569c-8.215,37.17 -19.723,89.237 -19.723,89.237" style="fill:none;stroke:rgb(55,132,170);stroke-width:10px;"/>
        <path d="M349.15,100.168c0,0 -10.689,48.365 -18.165,82.189c-4.477,20.255 -24.526,33.046 -44.781,28.569c-7.627,-1.686 -15.381,-3.399 -22.098,-4.884c-5.189,-1.147 -10.621,-0.186 -15.101,2.672c-4.479,2.858 -7.64,7.379 -8.787,12.568c-0,0 -0.001,0.001 -0.001,0.002c-1.147,5.189 -0.185,10.62 2.673,15.1c2.858,4.48 7.378,7.641 12.567,8.788c18.484,4.085 45.997,10.166 64.068,14.16c10.127,2.238 16.523,12.263 14.284,22.39c0,0.001 -0,0.001 -0,0.002c-2.239,10.128 -12.263,16.523 -22.391,14.284c-16.786,-3.71 -41.498,-9.172 -58.285,-12.882c-10.127,-2.238 -20.152,4.157 -22.39,14.285c-0,0 -0,0.001 -0,0.001c-2.239,10.128 4.157,20.152 14.284,22.391c34.824,7.697 110.155,24.346 144.979,32.043c10.128,2.239 16.523,12.263 14.285,22.391c-0,0 -0,0.001 -0.001,0.001c-2.238,10.128 -12.263,16.523 -22.39,14.285c-15.021,-3.32 -36.747,-8.122 -55.314,-12.226c-20.255,-4.477 -40.304,8.314 -44.781,28.569c-8.215,37.17 -22.063,99.827 -22.063,99.827" style="fill:none;stroke:rgb(239,246,249);stroke-width:10px;"/>
        <path d="M76.4,358.442c16.708,-7.821 35.348,-12.191 55,-12.191c71.749,-0 130,58.251 130,130c0,19.653 -4.37,38.292 -12.191,55" style="fill:none;stroke:rgb(121,194,231);stroke-width:10px;stroke-linecap:round;"/>
        <path d="M76.4,400.033c15.468,-11.186 34.47,-17.782 55,-17.782c51.88,-0 94,42.12 94,94c0,20.53 -6.596,39.532 -17.782,55" style="fill:none;stroke:rgb(55,132,170);stroke-width:10px;stroke-linecap:round;"/>
        <path d="M76.4,476.251c0,-30.355 24.645,-55 55,-55c30.356,-0 55,24.645 55,55c0,30.355 -24.644,55 -55,55" style="fill:none;stroke:rgb(22,93,131);stroke-width:10px;stroke-linecap:round;"/>
        <g>
            <path d="M530.458,247.885c-16.707,7.821 -35.347,12.191 -55,12.191c-71.749,-0 -130,-58.251 -130,-130c0,-19.653 4.37,-38.293 12.191,-55" style="fill:none;stroke:rgb(121,194,231);stroke-width:10px;stroke-linecap:round;"/>
        </g>
        <g>
            <path d="M530.458,206.293c-15.468,11.187 -34.47,17.783 -55,17.783c-51.88,-0 -94,-42.12 -94,-94c0,-20.53 6.596,-39.532 17.782,-55" style="fill:none;stroke:rgb(55,132,170);stroke-width:10px;stroke-linecap:round;"/>
        </g>
        <g>
            <path d="M530.458,130.076c0,30.355 -24.645,55 -55,55c-30.355,-0 -55,-24.645 -55,-55c0,-30.356 24.645,-55 55,-55" style="fill:none;stroke:rgb(22,93,131);stroke-width:10px;stroke-linecap:round;"/>
        </g>
    </g>
</svg>
