<?xml version="1.0" encoding="UTF-8" standalone="no"?>
<!DOCTYPE svg PUBLIC "-//W3C//DTD SVG 1.1//EN" "http://www.w3.org/Graphics/SVG/1.1/DTD/svg11.dtd">
<svg width="100%" height="100%" viewBox="0 0 601 600" version="1.1" xmlns="http://www.w3.org/2000/svg" xmlns:xlink="http://www.w3.org/1999/xlink" xml:space="preserve" xmlns:serif="http://www.serif.com/" style="fill-rule:evenodd;clip-rule:evenodd;stroke-linejoin:round;stroke-miterlimit:1.5;">
    <rect id="viz-01---cleanup" serif:id="viz 01 - cleanup" x="0.411" y="0" width="600" height="600" style="fill:none;"/>
    <path d="M500.411,132l-0,336c-0,17.661 -14.339,32 -32,32l-336,0c-17.661,0 -32,-14.339 -32,-32l-0,-336c-0,-17.661 14.339,-32 32,-32l336,0c17.661,0 32,14.339 32,32Z" style="fill:rgb(45,49,51);"/>
    <rect x="166.035" y="164.578" width="270" height="270.845" style="fill:none;"/>
    <clipPath id="_clip1">
        <rect x="166.035" y="164.578" width="270" height="270.845"/>
    </clipPath>
    <g clip-path="url(#_clip1)">
        <path d="M255.647,250.687c-0,-0 3.74,-10.694 8.308,-23.752c1.659,-4.742 6.243,-7.825 11.26,-7.573c5.018,0.252 9.269,3.779 10.444,8.663c3.741,15.552 8.277,34.407 12.865,53.476" style="fill:none;stroke:rgb(22,93,131);stroke-width:10px;"/>
        <path d="M371.917,220.619c3.799,-12.22 7.349,-23.641 10.437,-33.575c1.49,-4.794 5.959,-8.035 10.979,-7.963c5.021,0.072 9.394,3.441 10.746,8.276c10.58,37.851 26.797,95.864 36.4,130.22" style="fill:none;stroke:rgb(22,93,131);stroke-width:10px;"/>
        <path d="M237.402,280.9c0,-0 3.835,-11.149 7.48,-21.745c1.64,-4.768 6.235,-7.878 11.271,-7.629c5.037,0.25 9.302,3.799 10.463,8.706c3.125,13.211 6.775,28.644 10.469,44.257" style="fill:none;stroke:rgb(55,132,170);stroke-width:10px;"/>
        <path d="M342.306,251.768c3.181,-10.405 6.181,-20.221 8.85,-28.951c1.473,-4.82 5.953,-8.087 10.993,-8.015c5.039,0.071 9.425,3.464 10.761,8.323c8.433,30.683 20.273,73.756 28.618,104.118" style="fill:none;stroke:rgb(55,132,170);stroke-width:10px;"/>
        <path d="M220.669,307.757c-0,-0 3.249,-9.608 6.48,-19.159c1.622,-4.795 6.227,-7.932 11.282,-7.685c5.056,0.247 9.333,3.818 10.48,8.748c3.714,15.964 9.064,38.965 13.257,56.993" style="fill:none;stroke:rgb(55,132,170);stroke-width:10px;"/>
        <path d="M316.018,277.243c7.662,-25.491 0.192,-0.64 6.536,-21.746c1.456,-4.845 5.948,-8.136 11.006,-8.066c5.058,0.071 9.456,3.487 10.776,8.371c7.461,27.602 17.428,64.477 24.556,90.852" style="fill:none;stroke:rgb(55,132,170);stroke-width:10px;"/>
        <path d="M392.549,349.568c3.598,-7.457 7.337,-15.205 10.551,-21.866c1.774,-3.675 5.386,-6.112 9.458,-6.38c4.071,-0.268 7.972,1.675 10.212,5.086c31.3,47.673 41.004,62.452 41.004,62.452" style="fill:none;stroke:rgb(55,132,170);stroke-width:10px;"/>
        <path d="M205.333,331.398c-0,0 3.681,-11.069 5.284,-15.889c1.603,-4.82 6.219,-7.983 11.293,-7.739c5.074,0.244 9.364,3.837 10.497,8.788c4.406,19.264 9.712,42.46 14.199,62.075c0.641,2.802 2.291,5.166 4.52,6.736" style="fill:none;stroke:rgb(121,194,231);stroke-width:10px;"/>
        <path d="M290.627,304.489c1.98,-6.7 3.883,-13.139 5.654,-19.13c1.439,-4.869 5.942,-8.185 11.018,-8.115c5.077,0.07 9.487,3.51 10.791,8.416c6.592,24.804 14.997,56.425 21.057,79.229" style="fill:none;stroke:rgb(121,194,231);stroke-width:10px;"/>
        <path d="M360.328,366.836c2.852,-6.013 5.798,-12.221 8.427,-17.76c1.761,-3.713 5.395,-6.18 9.496,-6.447c4.1,-0.268 8.024,1.707 10.253,5.159c29.017,44.944 72.719,112.634 72.719,112.634" style="fill:none;stroke:rgb(121,194,231);stroke-width:10px;"/>
        <path d="M169.726,440.367c-0,-0 23.852,-95.407 25.437,-100.252c1.584,-4.846 6.21,-8.035 11.302,-7.794c5.092,0.242 9.395,3.856 10.514,8.829c3.414,15.178 7.311,32.503 10.78,47.926c1.134,5.042 5.536,8.677 10.701,8.836c5.166,0.159 9.784,-3.198 11.226,-8.161c6.953,-23.922 15.594,-53.654 22.407,-77.097c1.422,-4.892 5.936,-8.233 11.031,-8.164c5.095,0.069 9.517,3.532 10.805,8.462c5.421,20.74 11.949,45.721 16.962,64.901c1.207,4.618 5.181,7.985 9.936,8.416c4.754,0.431 9.269,-2.165 11.287,-6.491c1.771,-3.796 3.55,-7.608 5.217,-11.18c1.749,-3.75 5.405,-6.247 9.534,-6.514c4.129,-0.267 8.075,1.739 10.293,5.232c15.886,25.024 48.504,76.402 48.504,76.402" style="fill:none;stroke:rgb(239,246,249);stroke-width:10px;"/>
    </g>
    <g>
        <path d="M140.612,180.54l0,-39.953l40,0" style="fill:none;stroke:rgb(55,132,170);stroke-width:10px;stroke-linecap:round;"/>
        <path d="M140.612,419.46l0,39.953l40,-0" style="fill:none;stroke:rgb(55,132,170);stroke-width:10px;"/>
        <path d="M460.612,179.953l0,-39.953l-40,0" style="fill:none;stroke:rgb(55,132,170);stroke-width:10px;"/>
        <path d="M460.612,420.047l0,39.953l-40,0" style="fill:none;stroke:rgb(55,132,170);stroke-width:10px;"/>
    </g>
</svg>
