<?xml version="1.0" encoding="UTF-8" standalone="no"?>
<!DOCTYPE svg PUBLIC "-//W3C//DTD SVG 1.1//EN" "http://www.w3.org/Graphics/SVG/1.1/DTD/svg11.dtd">
<svg width="100%" height="100%" viewBox="0 0 601 601" version="1.1" xmlns="http://www.w3.org/2000/svg" xmlns:xlink="http://www.w3.org/1999/xlink" xml:space="preserve" xmlns:serif="http://www.serif.com/" style="fill-rule:evenodd;clip-rule:evenodd;stroke-linejoin:round;stroke-miterlimit:1.5;">
    <rect id="gain-01---cleanup" serif:id="gain 01 - cleanup" x="0.55" y="0.111" width="600" height="600" style="fill:none;"/>
    <path d="M100.55,132.111l-0,336c-0,17.662 14.339,32 32,32l336,0c17.661,0 32,-14.338 32,-32l-0,-336c-0,-17.661 -14.339,-32 -32,-32l-336,0c-17.661,0 -32,14.339 -32,32Z" style="fill:rgb(45,49,51);"/>
    <clipPath id="_clip1">
        <path d="M100.55,132.111l-0,336c-0,17.662 14.339,32 32,32l336,0c17.661,0 32,-14.338 32,-32l-0,-336c-0,-17.661 -14.339,-32 -32,-32l-336,0c-17.661,0 -32,14.339 -32,32Z"/>
    </clipPath>
    <g clip-path="url(#_clip1)">
        <path d="M176.713,420.812l-21.032,-22.631l-62.569,77.726" style="fill:none;stroke:rgb(22,93,131);stroke-width:10px;"/>
        <path d="M242.89,385.545l-18.181,-23.743l-112.485,146.897" style="fill:none;stroke:rgb(55,132,170);stroke-width:10px;"/>
        <path d="M313.41,339.021l-19.701,-31.225l-126.757,200.903" style="fill:none;stroke:rgb(55,132,170);stroke-width:10px;"/>
        <path d="M384.552,282.719l-20.482,-39.4l-137.962,265.38" style="fill:none;stroke:rgb(121,194,231);stroke-width:10px;"/>
        <path d="M453.415,221.166l-21.431,-50.031l-144.594,337.564" style="fill:none;stroke:rgb(121,194,231);stroke-width:10px;"/>
        <path d="M492.388,111.246l-140.276,397.453" style="fill:none;stroke:rgb(239,246,249);stroke-width:10px;"/>
    </g>
</svg>
